<?xml version="1.0" encoding="UTF-8" standalone="no"?>
<!DOCTYPE svg PUBLIC "-//W3C//DTD SVG 1.1//EN" "http://www.w3.org/Graphics/SVG/1.1/DTD/svg11.dtd">
<svg width="100%" height="100%" viewBox="0 0 126 125" version="1.1" xmlns="http://www.w3.org/2000/svg" xmlns:xlink="http://www.w3.org/1999/xlink" xml:space="preserve" xmlns:serif="http://www.serif.com/" style="fill-rule:evenodd;clip-rule:evenodd;stroke-linejoin:round;stroke-miterlimit:2;">
    <g transform="matrix(1,0,0,1,-97.39,-123.79)">
        <path d="M213.59,195.21C209.31,221.02 186.84,240.76 159.84,240.76C129.79,240.76 105.34,216.31 105.34,186.26C105.34,156.21 129.79,131.76 159.84,131.76C186.84,131.76 209.31,151.51 213.59,177.31L217.96,179.83L222.16,182.25C220.09,149.67 192.94,123.79 159.85,123.79C125.41,123.79 97.39,151.81 97.39,186.25C97.39,220.69 125.41,248.71 159.85,248.71C192.94,248.71 220.09,222.83 222.16,190.25L217.96,192.67L213.59,195.21Z" style="fill:white;fill-rule:nonzero;"/>
        <path d="M173.59,177.76L196,155.35C197.49,153.86 197.49,151.43 196,149.94C194.51,148.45 192.08,148.45 190.59,149.94L162.77,177.77L173.59,177.77L173.59,177.76Z" style="fill:rgb(171,173,215);fill-rule:nonzero;"/>
        <g>
            <path d="M223.08,186.27L198.22,171.92L198.22,180.76L160.96,180.76C157.92,180.76 155.45,183.23 155.45,186.27C155.45,189.31 157.92,191.78 160.96,191.78L198.22,191.78L198.22,200.62L223.08,186.27Z" style="fill:white;"/>
        </g>
        <g>
            <path d="M125.04,223.53C124.36,223.53 123.68,223.27 123.16,222.75C122.12,221.71 122.12,220.03 123.16,218.99L131.7,210.45C132.74,209.41 134.42,209.41 135.46,210.45C136.5,211.49 136.5,213.17 135.46,214.21L126.92,222.75C126.4,223.27 125.72,223.53 125.04,223.53Z" style="fill:rgb(202,203,230);fill-rule:nonzero;"/>
        </g>
        <g>
            <g>
                <path d="M159.58,152.21C158.11,152.21 156.92,151.02 156.92,149.55L156.92,137.47C156.92,136 158.11,134.81 159.58,134.81C161.05,134.81 162.24,136 162.24,137.47L162.24,149.55C162.24,151.02 161.05,152.21 159.58,152.21Z" style="fill:rgb(202,203,230);fill-rule:nonzero;"/>
            </g>
            <g>
                <path d="M159.58,237.84C158.11,237.84 156.92,236.65 156.92,235.18L156.92,223.1C156.92,221.63 158.11,220.44 159.58,220.44C161.05,220.44 162.24,221.63 162.24,223.1L162.24,235.18C162.24,236.64 161.05,237.84 159.58,237.84Z" style="fill:rgb(202,203,230);fill-rule:nonzero;"/>
            </g>
        </g>
        <g>
            <path d="M122.8,188.98L110.72,188.98C109.25,188.98 108.06,187.79 108.06,186.32C108.06,184.85 109.25,183.66 110.72,183.66L122.8,183.66C124.27,183.66 125.46,184.85 125.46,186.32C125.46,187.79 124.27,188.98 122.8,188.98Z" style="fill:rgb(202,203,230);fill-rule:nonzero;"/>
        </g>
        <g>
            <g>
                <path d="M194.12,223.53C193.44,223.53 192.76,223.27 192.24,222.75L183.7,214.21C182.66,213.17 182.66,211.49 183.7,210.45C184.74,209.41 186.42,209.41 187.46,210.45L196,218.99C197.04,220.03 197.04,221.71 196,222.75C195.48,223.27 194.8,223.53 194.12,223.53Z" style="fill:rgb(202,203,230);fill-rule:nonzero;"/>
            </g>
            <g>
                <path d="M133.58,162.98C132.9,162.98 132.22,162.72 131.7,162.2L123.16,153.66C122.12,152.62 122.12,150.94 123.16,149.9C124.2,148.86 125.88,148.86 126.92,149.9L135.46,158.44C136.5,159.48 136.5,161.16 135.46,162.2C134.94,162.72 134.26,162.98 133.58,162.98Z" style="fill:rgb(202,203,230);fill-rule:nonzero;"/>
            </g>
        </g>
    </g>
</svg>
