<?xml version="1.0" encoding="UTF-8"?>
<svg width="370px" height="368px" viewBox="0 0 370 368" version="1.1" xmlns="http://www.w3.org/2000/svg" xmlns:xlink="http://www.w3.org/1999/xlink">
    <title>Elsewhen</title>
    <g id="Page-1" stroke="none" stroke-width="1" fill="none" fill-rule="evenodd">
        <g id="Icon" transform="translate(-71.000000, -72.000000)">
            <g id="Elsewhen" transform="translate(71.000000, 72.000000)">
                <path d="M342.723411,210.395133 C330.099864,286.428434 263.82624,344.580211 184.191713,344.580211 C95.561433,344.580211 23.4479442,272.553314 23.4479442,184.029459 C23.4479442,95.5056036 95.561433,23.4787064 184.191713,23.4787064 C263.82624,23.4787064 330.099864,81.6599424 342.723411,157.663785 L355.612407,165.087416 L368,172.216459 C361.894686,76.2395133 281.817745,0 184.221207,0 C82.642943,0 0,82.543708 0,184 C0,285.456292 82.642943,368 184.221207,368 C281.817745,368 361.894686,291.760487 368,195.783541 L355.612407,202.912584 L342.723411,210.395133 Z" id="Path" fill="#FFFFFF" fill-rule="nonzero"></path>
                <path d="M224.816581,158.970636 L290.713953,93.1670265 C295.095349,88.7918646 295.095349,81.6565334 290.713953,77.2813714 C286.332557,72.9062095 279.187059,72.9062095 274.805663,77.2813714 L193,159 L224.816581,159 L224.816581,158.970636 Z" id="Path" fill-opacity="0.7" fill="#FFFFFF" fill-rule="nonzero"></path>
                <path d="M370,183 L296.849919,141 L296.849919,166.873171 L187.213071,166.873171 C178.267928,166.873171 171,174.102439 171,183 C171,191.897561 178.267928,199.126829 187.213071,199.126829 L296.849919,199.126829 L296.849919,225 L370,183 Z" id="Path" fill="#FFFFFF"></path>
                <g id="Group" transform="translate(175.000000, 284.828497)"></g>
                <g id="Group" transform="translate(73.000000, 75.000000)"></g>
                <path d="M80.8686869,294 C78.8571429,294 76.8455988,293.23088 75.3073593,291.692641 C72.2308802,288.616162 72.2308802,283.646465 75.3073593,280.569986 L100.569986,255.307359 C103.646465,252.23088 108.616162,252.23088 111.692641,255.307359 C114.76912,258.383838 114.76912,263.353535 111.692641,266.430014 L86.4300144,291.692641 C84.8917749,293.23088 82.8802309,294 80.8686869,294 Z" id="Path" fill-opacity="0.4" fill="#FFFFFF" fill-rule="nonzero"></path>
                <path d="M182.5,84.1715034 C178.355263,84.1715034 175,80.6718432 175,76.3487334 L175,40.8227701 C175,36.4996603 178.355263,33 182.5,33 C186.644737,33 190,36.4996603 190,40.8227701 L190,76.3487334 C190,80.6718432 186.644737,84.1715034 182.5,84.1715034 Z" id="Path" fill-opacity="0.4" fill="#FFFFFF" fill-rule="nonzero"></path>
                <path d="M182.5,336 C178.355263,336 175,332.50034 175,328.17723 L175,292.651267 C175,288.328157 178.355263,284.828497 182.5,284.828497 C186.644737,284.828497 190,288.328157 190,292.651267 L190,328.17723 C190,332.470931 186.644737,336 182.5,336 Z" id="Path" fill-opacity="0.4" fill="#FFFFFF" fill-rule="nonzero"></path>
                <path d="M284.170161,294 C282.168548,294 280.166935,293.23478 278.63629,291.704341 L253.498387,266.569816 C250.437097,263.508937 250.437097,258.56444 253.498387,255.503561 C256.559677,252.442682 261.504839,252.442682 264.566129,255.503561 L289.704032,280.638086 C292.765323,283.698965 292.765323,288.643462 289.704032,291.704341 C288.173387,293.23478 286.171774,294 284.170161,294 Z" id="Path" fill-opacity="0.4" fill="#FFFFFF" fill-rule="nonzero"></path>
                <path d="M105.967742,115.792098 C103.966129,115.792098 101.964516,115.026878 100.433871,113.496439 L75.2959677,88.3619137 C72.2346774,85.3010348 72.2346774,80.3565381 75.2959677,77.2956592 C78.3572581,74.2347803 83.3024194,74.2347803 86.3637097,77.2956592 L111.501613,102.430184 C114.562903,105.491063 114.562903,110.43556 111.501613,113.496439 C109.970968,115.026878 107.969355,115.792098 105.967742,115.792098 Z" id="Path" fill-opacity="0.4" fill="#FFFFFF" fill-rule="nonzero"></path>
                <path d="M75.2034483,192 L39.7965517,192 C35.487931,192 32,188.644737 32,184.5 C32,180.355263 35.487931,177 39.7965517,177 L75.2034483,177 C79.512069,177 83,180.355263 83,184.5 C83,188.644737 79.512069,192 75.2034483,192 Z" id="Path" fill-opacity="0.4" fill="#FFFFFF" fill-rule="nonzero"></path>
            </g>
        </g>
    </g>
</svg>