<?xml version="1.0" encoding="iso-8859-1"?>
<!-- Generator: Adobe Illustrator 25.4.1, SVG Export Plug-In . SVG Version: 6.00 Build 0)  -->
<svg version="1.1" id="Layer_1" xmlns="http://www.w3.org/2000/svg" xmlns:xlink="http://www.w3.org/1999/xlink" x="0px" y="0px"
	 viewBox="0 0 34.45 34.372" style="enable-background:new 0 0 34.45 34.372;" xml:space="preserve">
<path d="M21.48,14.499l5.005-5.005c0.408-0.408,0.408-1.069,0-1.477c-0.408-0.408-1.069-0.408-1.477,0l-6.482,6.482H21.48z"/>
<g>
	<path style="fill-rule:evenodd;clip-rule:evenodd;" d="M34.45,17.186l-6.786-3.918v2.414H17.493c-0.831,0-1.504,0.674-1.504,1.504
		c0,0.831,0.674,1.504,1.504,1.504h10.171v2.413L34.45,17.186z"/>
</g>
<path d="M30.621,21.706c-1.893,5.61-7.194,9.666-13.435,9.666C9.364,31.372,3,25.008,3,17.186S9.364,3,17.186,3
	c6.241,0,11.542,4.056,13.435,9.666l3.554,2.052C32.975,6.399,25.837,0,17.186,0C7.694,0,0,7.694,0,17.186
	s7.694,17.186,17.186,17.186c8.651,0,15.789-6.399,16.989-14.718L30.621,21.706z"/>
<g>
	<path style="fill-rule:evenodd;clip-rule:evenodd;" d="M34.45,17.186l-6.786-3.918v2.414H17.493c-0.831,0-1.504,0.674-1.504,1.504
		c0,0.831,0.674,1.504,1.504,1.504h10.171v2.413L34.45,17.186z"/>
</g>
<g>
	<g>
		<path d="M17.116,9.778c-0.476,0-0.861-0.386-0.861-0.861V5.005c0-0.476,0.386-0.861,0.861-0.861c0.476,0,0.861,0.386,0.861,0.861
			v3.911C17.977,9.392,17.592,9.778,17.116,9.778z"/>
	</g>
	<g>
		<path d="M17.116,30.229c-0.476,0-0.861-0.386-0.861-0.861v-3.911c0-0.476,0.386-0.861,0.861-0.861
			c0.476,0,0.861,0.386,0.861,0.861v3.911C17.977,29.843,17.592,30.229,17.116,30.229z"/>
	</g>
</g>
<g>
	<path d="M7.893,26.409c-0.336-0.336-0.336-0.882,0-1.218l2.766-2.766c0.336-0.336,0.882-0.336,1.218,0
		c0.336,0.336,0.336,0.882,0,1.218l-2.766,2.766C8.775,26.745,8.23,26.745,7.893,26.409z"/>
</g>
<g>
	<path d="M4.073,17.186c0-0.476,0.386-0.861,0.861-0.861h3.911c0.476,0,0.861,0.386,0.861,0.861c0,0.476-0.386,0.861-0.861,0.861
		H4.935C4.459,18.047,4.073,17.662,4.073,17.186z"/>
</g>
<g>
	<g>
		<path d="M22.354,22.425c0.336-0.336,0.882-0.336,1.218,0l2.766,2.766c0.336,0.336,0.336,0.882,0,1.218s-0.882,0.336-1.218,0
			l-2.766-2.766C22.018,23.306,22.018,22.761,22.354,22.425z"/>
	</g>
	<g>
		<path d="M7.893,7.964c0.336-0.336,0.882-0.336,1.218,0l2.766,2.766c0.336,0.336,0.336,0.882,0,1.218s-0.882,0.336-1.218,0
			L7.893,9.182C7.557,8.845,7.557,8.3,7.893,7.964z"/>
	</g>
</g>
</svg>
